<svg xmlns="http://www.w3.org/2000/svg" viewBox="0 0 561.16 115.02"><defs><style>.cls-1{fill:#ebe6c3;}</style></defs><title>Asset 2divine-bg</title><g id="Layer_2" data-name="Layer 2"><g id="Layer_1-2" data-name="Layer 1"><path class="cls-1" d="M97.36,14.34q15.71,14.34,15.71,41.71,0,17.66-7.69,30.86a52,52,0,0,1-22.19,20.49q-14.5,7.29-34.59,7.29l-10-.16q-9.4-.32-13.61-.32-16.69,0-24.95.49v-3.24a28.1,28.1,0,0,0,7.86-1.3,5.61,5.61,0,0,0,3.4-3.73,31.83,31.83,0,0,0,.89-8.91V17.17a31.86,31.86,0,0,0-.89-8.91,5.61,5.61,0,0,0-3.4-3.73A28.21,28.21,0,0,0,0,3.24V0Q6.8.49,19.6.49h5L31.1.32Q44.39,0,50.06,0,81.65,0,97.36,14.34ZM42.36,4a6.41,6.41,0,0,0-3.48,4,29.49,29.49,0,0,0-1,8.75v81a29.49,29.49,0,0,0,1,8.75,6.4,6.4,0,0,0,3.48,4.05q2.51,1.14,7.69,1.13,19.6,0,27.86-13.69T86.18,56.7q0-27.7-8.5-40.74T49.9,2.92A19.18,19.18,0,0,0,42.36,4Z"/><path class="cls-1" d="M174.31,3.24a27.75,27.75,0,0,0-7.94,1.3,5.62,5.62,0,0,0-3.32,3.73,31.75,31.75,0,0,0-.89,8.91V97.52a31.72,31.72,0,0,0,.89,8.91,5.61,5.61,0,0,0,3.32,3.73,27.65,27.65,0,0,0,7.94,1.3v3.24q-8.75-.49-24.46-.49-17.34,0-25.6.49v-3.24a28.1,28.1,0,0,0,7.86-1.3,5.61,5.61,0,0,0,3.4-3.73,31.83,31.83,0,0,0,.89-8.91V17.17a31.86,31.86,0,0,0-.89-8.91,5.61,5.61,0,0,0-3.4-3.73,28.21,28.21,0,0,0-7.86-1.3V0q8.26.49,25.6.49,15.71,0,24.46-.49Z"/><path class="cls-1" d="M289.49,0V3.24q-4.05,1.46-7.94,6.16a44.7,44.7,0,0,0-7,13.12L240.41,115q-1.78-.16-5.67-.16-3.73,0-5.51.16L187.92,13.61q-2.11-5.35-4.86-7.78a9.13,9.13,0,0,0-5.35-2.59V0q9.72.49,24.62.49Q219,.49,227,0V3.24q-6.16.33-8.75,1.46t-2.59,4.54a22.24,22.24,0,0,0,1.94,7.61l28.51,72.58L266,35.64q4.53-12.47,4.54-19.76,0-6.48-3.48-9.4T256.93,3.24V0q11,.49,20.25.49Q284.63.49,289.49,0Z"/><path class="cls-1" d="M343.44,3.24a27.76,27.76,0,0,0-7.94,1.3,5.62,5.62,0,0,0-3.32,3.73,31.77,31.77,0,0,0-.89,8.91V97.52a31.74,31.74,0,0,0,.89,8.91,5.62,5.62,0,0,0,3.32,3.73,27.65,27.65,0,0,0,7.94,1.3v3.24q-8.75-.49-24.46-.49-17.34,0-25.6.49v-3.24a28.1,28.1,0,0,0,7.86-1.3,5.6,5.6,0,0,0,3.4-3.73,31.81,31.81,0,0,0,.89-8.91V17.17a31.84,31.84,0,0,0-.89-8.91,5.61,5.61,0,0,0-3.4-3.73,28.21,28.21,0,0,0-7.86-1.3V0q8.26.49,25.6.49,15.71,0,24.46-.49Z"/><path class="cls-1" d="M461,3.24q-5.35.81-7.86,2.75a10.07,10.07,0,0,0-3.4,6.16,64.85,64.85,0,0,0-.89,12.47V115l-3.89-.16-4.37.16-70.31-89.1V88.13a72.4,72.4,0,0,0,1,14,9.63,9.63,0,0,0,4.21,6.48q3.24,2,10.53,2.83v3.24q-6.32-.49-17.5-.49-8.91,0-14.09.49v-3.24q5.35-.81,7.86-2.75a10.09,10.09,0,0,0,3.4-6.16,65,65,0,0,0,.89-12.47V17.17a31.84,31.84,0,0,0-.89-8.91,5.61,5.61,0,0,0-3.4-3.73,28.21,28.21,0,0,0-7.86-1.3V0q5.18.49,14.09.49,8.1,0,13.93-.49l62.69,77.27V26.57a72.36,72.36,0,0,0-1-14A9.65,9.65,0,0,0,440,6.07q-3.24-2-10.53-2.83V0q6.32.49,17.5.49Q456,.49,461,0Z"/><path class="cls-1" d="M561.16,114.7q-11-.49-37.1-.49-35.32,0-52.81.49v-3.24a28.1,28.1,0,0,0,7.86-1.3,5.6,5.6,0,0,0,3.4-3.73,31.81,31.81,0,0,0,.89-8.91V17.17a31.84,31.84,0,0,0-.89-8.91,5.61,5.61,0,0,0-3.4-3.73,28.21,28.21,0,0,0-7.86-1.3V0q17.5.49,52.81.49,23.81,0,33.86-.49-1.14,13.45-1.13,24a94.69,94.69,0,0,0,.49,11h-3.73q-2.43-17.33-8.75-24.3T527,3.73h-6.64a23.64,23.64,0,0,0-7.29.81A4.86,4.86,0,0,0,510,7.69a25.18,25.18,0,0,0-.81,7.53V55.4h5.18q8.59,0,13-6.32A39.51,39.51,0,0,0,533.62,34h3.73q-.48,6.8-.49,15.23V57q0,8.26,1,23h-3.73q-3.4-21.38-19.76-21.38h-5.18V99.47A25.16,25.16,0,0,0,510,107a4.85,4.85,0,0,0,3.08,3.16,23.54,23.54,0,0,0,7.29.81h7.94q11.5,0,18.55-7.86t10-26.65h3.73Q560,81.81,560,90.07A219.12,219.12,0,0,0,561.16,114.7Z"/></g></g></svg>